HIERARCHY
ROOT SpineBase
{
  OFFSET 0.000000 0.000000 0.000000
  CHANNELS 6 Xposition Yposition Zposition Zrotation Xrotation Yrotation
  JOINT SpineMid
  {
    OFFSET -0.000000 28.499385 0.000000
    CHANNELS 3 Zrotation Xrotation Yrotation
    JOINT SpineShoulder
    {
      OFFSET -0.012472 21.372876 -0.541641
      CHANNELS 3 Zrotation Xrotation Yrotation
      JOINT Neck
      {
        OFFSET -0.022445 7.131653 -0.415249
        CHANNELS 3 Zrotation Xrotation Yrotation
        JOINT Head
        {
          OFFSET 6.206451 11.485171 -2.455785
          CHANNELS 3 Zrotation Xrotation Yrotation
          End Site
          {
            OFFSET 0 0 0
          }
        }
      }
      JOINT ShoulderLeft
      {
        OFFSET -12.110146 -1.962414 -9.522491
        CHANNELS 3 Zrotation Xrotation Yrotation
        JOINT ElbowLeft
        {
          OFFSET -4.469157 -22.719962 -6.417012
          CHANNELS 3 Zrotation Xrotation Yrotation
          JOINT WristLeft
          {
            OFFSET 4.403944 -21.470347 -4.090142
            CHANNELS 3 Zrotation Xrotation Yrotation
            JOINT HandLeft
            {
              OFFSET 1.449917 -6.211851 -0.182646
              CHANNELS 3 Zrotation Xrotation Yrotation
              JOINT HandTipLeft
              {
                OFFSET 2.003907 -5.779142 0.356937
                CHANNELS 3 Zrotation Xrotation Yrotation
                End Site
                {
                  OFFSET 0 0 0
                }
              }
              JOINT ThumbLeft
              {
                OFFSET -1.925983 -1.093405 -2.367221
                CHANNELS 3 Zrotation Xrotation Yrotation
                End Site
                {
                  OFFSET 0 0 0
                }
              }
            }
          }
        }
      }
      JOINT ShoulderRight
      {
        OFFSET 14.174786 -7.901285 11.995664
        CHANNELS 3 Zrotation Xrotation Yrotation
        JOINT ElbowRight
        {
          OFFSET 0.820218 -23.299773 2.963632
          CHANNELS 3 Zrotation Xrotation Yrotation
          JOINT WristRight
          {
            OFFSET -0.055253 -20.861856 -5.358860
            CHANNELS 3 Zrotation Xrotation Yrotation
            JOINT HandRight
            {
              OFFSET 0.286922 -2.779869 -1.373464
              CHANNELS 3 Zrotation Xrotation Yrotation
              JOINT HandTipRight
              {
                OFFSET 1.147131 -3.476659 -1.436679
                CHANNELS 3 Zrotation Xrotation Yrotation
                End Site
                {
                  OFFSET 0 0 0
                }
              }
              JOINT ThumbRight
              {
                OFFSET -2.976105 0.206380 -1.427710
                CHANNELS 3 Zrotation Xrotation Yrotation
                End Site
                {
                  OFFSET 0 0 0
                }
              }
            }
          }
        }
      }
    }
  }
  JOINT HipLeft
  {
    OFFSET -5.151954 1.626619 -6.957279
    CHANNELS 3 Zrotation Xrotation Yrotation
    JOINT KneeLeft
    {
      OFFSET -7.552553 -28.190815 -1.275159
      CHANNELS 3 Zrotation Xrotation Yrotation
      JOINT AnkleLeft
      {
        OFFSET -7.253230 -33.953430 6.448399
        CHANNELS 3 Zrotation Xrotation Yrotation
        JOINT FootLeft
        {
          OFFSET 4.540320 -5.349647 -5.504118
          CHANNELS 3 Zrotation Xrotation Yrotation
          End Site
          {
            OFFSET 0 0 0
          }
        }
      }
    }
  }
  JOINT HipRight
  {
    OFFSET 4.641470 0.158723 2.338119
    CHANNELS 3 Zrotation Xrotation Yrotation
    JOINT KneeRight
    {
      OFFSET -1.684326 -28.350873 -0.056480
      CHANNELS 3 Zrotation Xrotation Yrotation
      JOINT AnkleRight
      {
        OFFSET -10.681434 -33.323693 6.495585
        CHANNELS 3 Zrotation Xrotation Yrotation
        JOINT FootRight
        {
          OFFSET 5.471060 -3.440803 -9.309181
          CHANNELS 3 Zrotation Xrotation Yrotation
          End Site
          {
            OFFSET 0 0 0
          }
        }
      }
    }
  }
}
MOTION
Frames: 15
Frame Time: 0.033333
50.164796 77.452945 321.990297 -5.153455 -0.863579 -45.708374 0.245219 -0.038106 45.531793 0.056094 -0.023030 -0.165789 -8.221257 2.308951 -2.686855 0.000000 0.000000 0.000000 4.947842 1.114100 0.243748 16.163028 -4.623817 -3.319609 -2.075906 -3.460600 2.241113 14.129224 12.425378 1.302011 0.000000 0.000000 0.000000 0.000000 0.000000 0.000000 5.446792 5.312972 0.430080 -1.317291 -18.827122 -0.166729 -60.966820 -4.651328 42.339735 39.014530 -0.335411 -12.107815 0.000000 0.000000 0.000000 0.000000 0.000000 0.000000 17.437428 40.474313 32.799459 -24.981268 -3.169921 0.580370 -3.625074 -7.144231 4.471273 0.000000 0.000000 0.000000 0.201486 -20.146758 46.110327 18.411927 15.641925 -3.739062 -3.334563 -10.808650 -2.802820 0.000000 0.000000 0.000000
51.549591 77.090036 319.974535 -5.748951 -1.338658 -44.120486 0.117781 0.051543 43.906049 0.098023 0.079086 -0.180035 -8.099014 3.416865 -3.049979 0.000000 0.000000 0.000000 5.522657 1.336333 0.261699 15.769171 -6.067026 -3.365186 -4.653555 -2.508351 2.432577 16.007826 9.289471 0.750231 0.000000 0.000000 0.000000 0.000000 0.000000 0.000000 5.999506 5.527812 0.444516 -1.633767 -18.730650 -0.143444 -53.817228 -13.700409 32.409900 33.840787 9.213373 -13.450205 0.000000 0.000000 0.000000 0.000000 0.000000 0.000000 18.849636 38.784561 31.395691 -19.258545 2.257508 1.066428 -8.760671 -11.402493 3.184126 0.000000 0.000000 0.000000 -0.072998 -22.374840 44.495123 19.816908 16.031587 -3.890088 -1.641776 -8.300695 -5.580050 0.000000 0.000000 0.000000
53.112018 76.820651 317.287061 -6.175410 -1.233258 -44.045970 0.052330 0.340386 43.837340 0.154056 0.192030 -0.178920 -7.759104 3.313682 -3.255892 0.000000 0.000000 0.000000 6.779330 0.427227 0.076641 14.670308 -6.550289 -3.342204 -5.434577 0.422525 2.895162 13.924922 5.035128 0.886756 0.000000 0.000000 0.000000 0.000000 0.000000 0.000000 6.193857 5.053570 0.478950 -1.602616 -18.293333 -0.136172 -37.658789 -22.934190 16.447702 16.376911 21.268710 -6.542623 0.000000 0.000000 0.000000 0.000000 0.000000 0.000000 19.335342 36.533987 32.277826 -14.544432 6.304774 1.152598 -12.303921 -12.559989 2.299096 0.000000 0.000000 0.000000 2.374697 -26.432259 44.955255 20.657045 18.444165 -4.441569 0.220696 -4.842972 -5.415509 0.000000 0.000000 0.000000
55.015348 76.548647 314.710774 -6.318869 -1.309426 -45.133011 -0.020379 0.233518 44.911872 0.189493 0.105225 -0.190805 -7.073965 3.730468 -3.230727 0.000000 0.000000 0.000000 7.277019 0.638199 -0.007679 14.540698 -7.046081 -3.312428 -7.681119 1.431820 3.316491 12.588010 2.931357 0.682810 0.000000 0.000000 0.000000 0.000000 0.000000 0.000000 6.402598 5.242684 0.477834 -1.164013 -17.791117 -0.154618 -20.091690 -25.703782 5.031983 -7.921855 19.471845 8.053697 0.000000 0.000000 0.000000 0.000000 0.000000 0.000000 17.350566 33.001194 35.483932 -8.021621 10.670858 0.785807 -15.333506 -12.668842 1.623588 0.000000 0.000000 0.000000 2.048673 -26.806016 45.967894 19.948464 14.938617 -3.361041 3.668888 2.084107 -5.182161 0.000000 0.000000 0.000000
56.953100 76.436853 312.107564 -6.462608 -1.081247 -44.428287 0.120793 0.196161 44.209243 0.243733 -0.046245 -0.198448 -6.239764 3.678975 -3.057167 0.000000 0.000000 0.000000 7.379701 0.513140 0.000507 14.168723 -7.319181 -3.362629 -9.623035 1.276703 3.498462 9.405182 2.598160 0.452490 0.000000 0.000000 0.000000 0.000000 0.000000 0.000000 6.396166 5.283966 0.474097 -1.307326 -17.912339 -0.140154 -6.885330 -24.387741 -1.489133 -25.338353 9.850350 19.157723 0.000000 0.000000 0.000000 0.000000 0.000000 0.000000 16.269935 28.781052 36.598173 -2.022826 13.297965 0.394393 -17.143390 -10.487085 1.817352 0.000000 0.000000 0.000000 -1.318206 -23.768614 44.418400 18.070253 5.704903 -1.072858 7.839831 11.850366 -5.122151 0.000000 0.000000 0.000000
58.888062 76.455542 309.773620 -6.569792 -0.936804 -45.243211 0.234324 -0.073455 45.011723 0.246772 -0.149811 -0.212098 -5.710095 3.626675 -2.842680 0.000000 0.000000 0.000000 7.852335 0.369048 -0.004190 13.243948 -6.840299 -3.364466 -10.255452 1.460353 3.505577 7.142275 6.187836 1.309639 0.000000 0.000000 0.000000 0.000000 0.000000 0.000000 6.585984 5.514068 0.469018 -1.320663 -18.029428 -0.134059 0.835826 -19.150790 -4.560708 -30.396388 -5.529603 15.460276 0.000000 0.000000 0.000000 0.000000 0.000000 0.000000 13.545622 23.729539 39.709309 5.706479 15.875809 -0.387950 -18.652665 -7.361186 2.074621 0.000000 0.000000 0.000000 -4.096248 -17.776046 44.795139 13.658027 -4.628633 0.899980 8.274190 12.377419 -6.510382 0.000000 0.000000 0.000000
60.921983 76.561995 307.526905 -6.731023 -1.129991 -46.882494 0.261273 -0.021207 46.635074 0.293382 -0.174936 -0.215944 -4.881654 4.698231 -3.063483 0.000000 0.000000 0.000000 8.476038 0.283324 -0.123905 12.500688 -6.078877 -3.267641 -12.356041 -1.369875 3.104558 8.248194 5.323570 0.551798 0.000000 0.000000 0.000000 0.000000 0.000000 0.000000 6.625835 5.715585 0.458218 -0.247630 -17.770788 -0.195522 2.142778 -17.025382 -4.984864 -33.370010 -9.551593 15.858017 0.000000 0.000000 0.000000 0.000000 0.000000 0.000000 10.682452 18.909628 43.271763 13.114904 18.077006 -1.630980 -19.150980 -3.712099 2.592821 0.000000 0.000000 0.000000 -7.928216 -8.678187 46.433624 7.714229 -18.282873 2.161508 11.204453 16.352288 -8.322726 0.000000 0.000000 0.000000
62.956697 76.840121 306.172384 -6.544978 -1.894369 -49.340166 0.233595 -0.119536 49.050873 0.245300 0.031004 -0.207152 -4.732029 5.771253 -3.153815 0.000000 0.000000 0.000000 9.206732 0.752057 -0.390121 10.986054 -5.622407 -2.964256 -12.420455 -2.337669 2.750183 7.718403 4.995732 0.333409 0.000000 0.000000 0.000000 0.000000 0.000000 0.000000 6.566674 6.319668 0.420030 -0.407858 -17.699966 -0.180206 5.987773 -18.466734 -7.216373 -37.767808 -3.428272 23.969254 0.000000 0.000000 0.000000 0.000000 0.000000 0.000000 6.675971 14.914597 47.156126 19.707957 18.869357 -2.384739 -21.241227 -6.006124 0.683031 0.000000 0.000000 0.000000 -15.717973 2.237902 49.794767 2.529164 -36.227520 2.324504 13.544259 20.814608 -10.821840 0.000000 0.000000 0.000000
64.443251 77.301001 304.277924 -6.955242 -2.099198 -51.789447 0.345729 0.106840 51.473511 0.325262 -0.040489 -0.214683 -5.091774 5.863895 -3.116288 0.000000 0.000000 0.000000 9.638843 0.991338 -0.519900 9.017348 -6.297785 -2.681126 -11.176958 -3.475749 2.166574 8.212155 7.571409 0.592977 0.000000 0.000000 0.000000 0.000000 0.000000 0.000000 6.639382 6.544262 0.409253 -1.651519 -17.959341 -0.096775 10.722538 -15.087142 -9.422253 -41.931907 0.505113 28.437566 0.000000 0.000000 0.000000 0.000000 0.000000 0.000000 5.680854 11.175283 50.670524 23.977550 20.104789 -3.915320 -20.959866 -5.665779 0.101453 0.000000 0.000000 0.000000 -21.258750 10.559226 53.911842 -3.491737 -50.269057 0.740653 15.494431 24.574964 -13.581439 0.000000 0.000000 0.000000
65.728064 76.976232 302.332340 -6.851286 -1.629697 -49.414744 0.348652 0.187261 49.137442 0.360975 -0.408345 -0.225345 -6.493996 6.211957 -3.510757 0.000000 0.000000 0.000000 9.938743 1.120811 -0.736812 7.936624 -6.505692 -2.326512 -11.927975 -7.027548 1.274409 9.039198 14.316334 1.589410 0.000000 0.000000 0.000000 0.000000 0.000000 0.000000 6.416011 6.375880 0.409935 -3.708643 -18.510364 0.020156 12.992130 -15.636088 -10.702374 -43.695987 9.091620 33.436223 0.000000 0.000000 0.000000 0.000000 0.000000 0.000000 6.264956 7.787825 48.967612 25.834094 20.557124 -4.842030 -19.773776 -5.212405 -0.362775 0.000000 0.000000 0.000000 -23.120470 16.567897 52.879996 -10.960118 -59.778768 -2.962695 18.064952 28.164969 -16.765323 0.000000 0.000000 0.000000
67.220509 76.649098 300.142207 -6.730577 -0.386909 -47.760331 0.342988 0.046340 47.559086 0.470216 -0.657845 -0.225992 -8.333081 1.432739 -2.375520 0.000000 0.000000 0.000000 10.325947 1.581846 -1.109047 5.987307 -9.150836 -1.645518 -8.799180 -5.658104 1.175094 4.382333 16.130490 2.950052 0.000000 0.000000 0.000000 0.000000 0.000000 0.000000 6.335883 4.511030 0.426723 -6.306017 -18.484750 0.258719 17.074183 -14.121014 -12.884759 -46.331591 14.313529 36.854675 0.000000 0.000000 0.000000 0.000000 0.000000 0.000000 7.708846 5.560552 47.725064 23.378961 19.555111 -4.647393 -12.706966 -5.516877 -3.739257 0.000000 0.000000 0.000000 -22.496585 17.935309 51.357079 -15.578895 -64.317029 -5.953565 21.862635 29.963093 -25.512402 0.000000 0.000000 0.000000
68.278879 75.962170 298.018030 -6.269934 -0.719896 -42.512308 0.124691 0.081461 42.314817 0.540623 -0.737208 -0.213660 -8.736645 10.066914 -5.701742 0.000000 0.000000 0.000000 12.390813 1.744876 -1.927935 1.847292 -11.881318 -1.101874 -6.564170 -2.766460 1.363958 2.358113 17.517209 3.795636 0.000000 0.000000 0.000000 0.000000 0.000000 0.000000 6.014019 3.007606 0.347903 -9.883087 -16.809041 0.853986 21.243415 -13.836262 -14.749373 -47.793598 18.792989 39.032375 0.000000 0.000000 0.000000 0.000000 0.000000 0.000000 7.748887 3.972862 42.736564 22.214575 18.759158 -4.466333 -11.202263 -4.619317 -3.847210 0.000000 0.000000 0.000000 -18.801822 17.236131 45.297694 -14.909068 -61.632729 -4.814302 22.370766 30.219378 -26.280272 0.000000 0.000000 0.000000
68.881463 75.593842 295.492345 -6.835626 -0.591978 -35.619589 -0.060572 0.137702 35.420044 0.577796 -0.703784 -0.234235 -9.111578 20.419821 -10.160147 0.000000 0.000000 0.000000 13.793071 1.242294 -2.032607 -0.916007 -12.483508 -0.864593 -3.603460 0.962559 1.413657 -2.102707 15.018620 4.186379 0.000000 0.000000 0.000000 0.000000 0.000000 0.000000 5.062739 3.882628 0.302611 -11.460388 -18.104331 1.079460 21.357597 -15.382719 -14.644323 -48.933105 31.539952 45.067632 0.000000 0.000000 0.000000 0.000000 0.000000 0.000000 9.423969 1.666932 36.340505 21.986787 18.892162 -5.025033 -14.103899 -1.992678 -0.462715 0.000000 0.000000 0.000000 -10.724585 10.151983 36.612156 -8.826479 -49.546754 0.022482 19.532621 28.977134 -19.367030 0.000000 0.000000 0.000000
69.187744 75.034814 293.270792 -5.992933 2.052970 -34.332036 -0.289753 -0.036165 34.284412 0.530462 -0.715367 -0.197429 -17.599174 15.548621 -10.177967 0.000000 0.000000 0.000000 16.297953 3.392585 -3.745985 -3.844832 -18.468188 0.978094 -2.117097 3.591127 1.589849 -8.664163 12.985276 4.639095 0.000000 0.000000 0.000000 0.000000 0.000000 0.000000 4.011733 5.813086 0.511278 -14.846235 -25.286781 -0.474005 27.342197 -9.898703 -18.034095 -62.178789 39.516633 58.324820 0.000000 0.000000 0.000000 0.000000 0.000000 0.000000 13.397281 -2.432428 36.267739 18.569354 20.189085 -6.065394 -25.378234 4.579354 14.582965 0.000000 0.000000 0.000000 -6.452078 5.794110 34.564338 -11.182636 -46.502663 -0.120335 15.387953 31.874741 1.834406 0.000000 0.000000 0.000000
69.306133 73.612917 291.632546 -5.342220 3.245368 -28.568113 -0.379473 0.062786 28.581102 0.531799 -0.595635 -0.158434 -18.124996 15.295854 -11.104121 0.000000 0.000000 0.000000 18.631897 5.108512 -5.275037 -7.510856 -20.665517 2.474939 -1.691697 3.119297 1.263040 -13.223802 9.805858 3.964709 0.000000 0.000000 0.000000 0.000000 0.000000 0.000000 4.893238 12.831239 0.988366 -20.115886 -37.501427 -5.288186 27.248892 -4.288015 -18.993274 -44.077043 28.034440 38.073085 0.000000 0.000000 0.000000 0.000000 0.000000 0.000000 15.504745 -3.883552 30.862120 13.149125 18.955994 -5.017985 -34.257482 6.074604 26.757730 0.000000 0.000000 0.000000 -1.381228 3.921173 28.549925 -15.528187 -43.574598 -0.334621 11.554717 32.042561 18.332171 0.000000 0.000000 0.000000
